<svg id="visual" viewBox="0 0 1922 940" width="1922" height="940" xmlns="http://www.w3.org/2000/svg" xmlns:xlink="http://www.w3.org/1999/xlink" version="1.1"><rect x="0" y="0" width="1922" height="940" fill="#001220"></rect><defs><linearGradient id="grad1_0" x1="51.1%" y1="0%" x2="100%" y2="100%"><stop offset="9.106382978723406%" stop-color="#26a269" stop-opacity="1"></stop><stop offset="90.89361702127658%" stop-color="#26a269" stop-opacity="1"></stop></linearGradient></defs><defs><linearGradient id="grad1_1" x1="51.1%" y1="0%" x2="100%" y2="100%"><stop offset="9.106382978723406%" stop-color="#26a269" stop-opacity="1"></stop><stop offset="90.89361702127658%" stop-color="#00856f" stop-opacity="1"></stop></linearGradient></defs><defs><linearGradient id="grad1_2" x1="51.1%" y1="0%" x2="100%" y2="100%"><stop offset="9.106382978723406%" stop-color="#00666a" stop-opacity="1"></stop><stop offset="90.89361702127658%" stop-color="#00856f" stop-opacity="1"></stop></linearGradient></defs><defs><linearGradient id="grad1_3" x1="51.1%" y1="0%" x2="100%" y2="100%"><stop offset="9.106382978723406%" stop-color="#00666a" stop-opacity="1"></stop><stop offset="90.89361702127658%" stop-color="#004859" stop-opacity="1"></stop></linearGradient></defs><defs><linearGradient id="grad1_4" x1="51.1%" y1="0%" x2="100%" y2="100%"><stop offset="9.106382978723406%" stop-color="#002c3f" stop-opacity="1"></stop><stop offset="90.89361702127658%" stop-color="#004859" stop-opacity="1"></stop></linearGradient></defs><defs><linearGradient id="grad1_5" x1="51.1%" y1="0%" x2="100%" y2="100%"><stop offset="9.106382978723406%" stop-color="#002c3f" stop-opacity="1"></stop><stop offset="90.89361702127658%" stop-color="#001220" stop-opacity="1"></stop></linearGradient></defs><defs><linearGradient id="grad2_0" x1="0%" y1="0%" x2="48.9%" y2="100%"><stop offset="9.106382978723406%" stop-color="#26a269" stop-opacity="1"></stop><stop offset="90.89361702127658%" stop-color="#26a269" stop-opacity="1"></stop></linearGradient></defs><defs><linearGradient id="grad2_1" x1="0%" y1="0%" x2="48.9%" y2="100%"><stop offset="9.106382978723406%" stop-color="#00856f" stop-opacity="1"></stop><stop offset="90.89361702127658%" stop-color="#26a269" stop-opacity="1"></stop></linearGradient></defs><defs><linearGradient id="grad2_2" x1="0%" y1="0%" x2="48.9%" y2="100%"><stop offset="9.106382978723406%" stop-color="#00856f" stop-opacity="1"></stop><stop offset="90.89361702127658%" stop-color="#00666a" stop-opacity="1"></stop></linearGradient></defs><defs><linearGradient id="grad2_3" x1="0%" y1="0%" x2="48.9%" y2="100%"><stop offset="9.106382978723406%" stop-color="#004859" stop-opacity="1"></stop><stop offset="90.89361702127658%" stop-color="#00666a" stop-opacity="1"></stop></linearGradient></defs><defs><linearGradient id="grad2_4" x1="0%" y1="0%" x2="48.9%" y2="100%"><stop offset="9.106382978723406%" stop-color="#004859" stop-opacity="1"></stop><stop offset="90.89361702127658%" stop-color="#002c3f" stop-opacity="1"></stop></linearGradient></defs><defs><linearGradient id="grad2_5" x1="0%" y1="0%" x2="48.9%" y2="100%"><stop offset="9.106382978723406%" stop-color="#001220" stop-opacity="1"></stop><stop offset="90.89361702127658%" stop-color="#002c3f" stop-opacity="1"></stop></linearGradient></defs><g transform="translate(1922, 0)"><path d="M0 893C-97.6 889.7 -195.1 886.3 -276 849.3C-356.8 812.3 -420.9 741.6 -497.9 685.2C-574.8 628.9 -664.7 586.9 -709.5 515.5C-754.3 444.1 -753.9 343.3 -777 252.5C-800.1 161.7 -846.5 80.8 -893 0L0 0Z" fill="#001f30"></path><path d="M0 744.2C-81.3 741.4 -162.6 738.6 -230 707.7C-297.3 676.9 -350.7 618 -414.9 571C-479 524.1 -553.9 489.1 -591.3 429.6C-628.6 370.1 -628.3 286.1 -647.5 210.4C-666.7 134.7 -705.4 67.4 -744.2 0L0 0Z" fill="#003a4d"></path><path d="M0 595.3C-65 593.1 -130.1 590.9 -184 566.2C-237.9 541.5 -280.6 494.4 -331.9 456.8C-383.2 419.3 -443.2 391.3 -473 343.7C-502.9 296.1 -502.6 228.9 -518 168.3C-533.4 107.8 -564.4 53.9 -595.3 0L0 0Z" fill="#005763"></path><path d="M0 446.5C-48.8 444.8 -97.6 443.2 -138 424.6C-178.4 406.1 -210.4 370.8 -248.9 342.6C-287.4 314.4 -332.4 293.4 -354.8 257.7C-377.1 222 -377 171.6 -388.5 126.2C-400 80.8 -423.3 40.4 -446.5 0L0 0Z" fill="#00756e"></path><path d="M0 297.7C-32.5 296.6 -65 295.4 -92 283.1C-118.9 270.8 -140.3 247.2 -166 228.4C-191.6 209.6 -221.6 195.6 -236.5 171.8C-251.4 148 -251.3 114.4 -259 84.2C-266.7 53.9 -282.2 26.9 -297.7 0L0 0Z" fill="#00936d"></path><path d="M0 148.8C-16.3 148.3 -32.5 147.7 -46 141.5C-59.5 135.4 -70.1 123.6 -83 114.2C-95.8 104.8 -110.8 97.8 -118.3 85.9C-125.7 74 -125.7 57.2 -129.5 42.1C-133.3 26.9 -141.1 13.5 -148.8 0L0 0Z" fill="#26a269"></path></g><g transform="translate(0, 940)"><path d="M0 -893C97.3 -890.3 194.6 -887.6 276 -849.3C357.3 -811 422.9 -737.1 490.2 -674.7C557.6 -612.3 626.8 -561.4 682 -495.5C737.2 -429.6 778.4 -348.7 811.3 -263.6C844.1 -178.5 868.5 -89.3 893 0L0 0Z" fill="#001f30"></path><path d="M0 -744.2C81.1 -741.9 162.1 -739.7 230 -707.7C297.8 -675.8 352.4 -614.3 408.5 -562.3C464.6 -510.3 522.3 -467.8 568.3 -412.9C614.3 -358 648.7 -290.6 676 -219.7C703.4 -148.8 723.8 -74.4 744.2 0L0 0Z" fill="#003a4d"></path><path d="M0 -595.3C64.9 -593.5 129.7 -591.7 184 -566.2C238.2 -540.7 281.9 -491.4 326.8 -449.8C371.7 -408.2 417.9 -374.3 454.7 -330.3C491.5 -286.4 518.9 -232.5 540.8 -175.7C562.7 -119 579 -59.5 595.3 0L0 0Z" fill="#005763"></path><path d="M0 -446.5C48.6 -445.1 97.3 -443.8 138 -424.6C178.7 -405.5 211.4 -368.6 245.1 -337.4C278.8 -306.2 313.4 -280.7 341 -247.8C368.6 -214.8 389.2 -174.3 405.6 -131.8C422 -89.3 434.3 -44.6 446.5 0L0 0Z" fill="#00756e"></path><path d="M0 -297.7C32.4 -296.8 64.9 -295.9 92 -283.1C119.1 -270.3 141 -245.7 163.4 -224.9C185.9 -204.1 208.9 -187.1 227.3 -165.2C245.7 -143.2 259.5 -116.2 270.4 -87.9C281.4 -59.5 289.5 -29.8 297.7 0L0 0Z" fill="#00936d"></path><path d="M0 -148.8C16.2 -148.4 32.4 -147.9 46 -141.5C59.6 -135.2 70.5 -122.9 81.7 -112.5C92.9 -102.1 104.5 -93.6 113.7 -82.6C122.9 -71.6 129.7 -58.1 135.2 -43.9C140.7 -29.8 144.8 -14.9 148.8 0L0 0Z" fill="#26a269"></path></g></svg>