<svg id="visual" viewBox="0 0 1922 940" width="1922" height="940" xmlns="http://www.w3.org/2000/svg" xmlns:xlink="http://www.w3.org/1999/xlink" version="1.1"><rect x="0" y="0" width="1922" height="940" fill="#000d17"></rect><path d="M0 612L45.8 612.7C91.7 613.3 183.3 614.7 274.8 608C366.3 601.3 457.7 586.7 549.2 592.8C640.7 599 732.3 626 823.8 623.7C915.3 621.3 1006.7 589.7 1098.2 595.8C1189.7 602 1281.3 646 1372.8 657C1464.3 668 1555.7 646 1647.2 635C1738.7 624 1830.3 624 1876.2 624L1922 624L1922 941L1876.2 941C1830.3 941 1738.7 941 1647.2 941C1555.7 941 1464.3 941 1372.8 941C1281.3 941 1189.7 941 1098.2 941C1006.7 941 915.3 941 823.8 941C732.3 941 640.7 941 549.2 941C457.7 941 366.3 941 274.8 941C183.3 941 91.7 941 45.8 941L0 941Z" fill="#613583"></path><path d="M0 636L45.8 640C91.7 644 183.3 652 274.8 667.2C366.3 682.3 457.7 704.7 549.2 701.5C640.7 698.3 732.3 669.7 823.8 663.2C915.3 656.7 1006.7 672.3 1098.2 689.2C1189.7 706 1281.3 724 1372.8 718.3C1464.3 712.7 1555.7 683.3 1647.2 663.2C1738.7 643 1830.3 632 1876.2 626.5L1922 621L1922 941L1876.2 941C1830.3 941 1738.7 941 1647.2 941C1555.7 941 1464.3 941 1372.8 941C1281.3 941 1189.7 941 1098.2 941C1006.7 941 915.3 941 823.8 941C732.3 941 640.7 941 549.2 941C457.7 941 366.3 941 274.8 941C183.3 941 91.7 941 45.8 941L0 941Z" fill="#7a3786"></path><path d="M0 689L45.8 705.7C91.7 722.3 183.3 755.7 274.8 767.5C366.3 779.3 457.7 769.7 549.2 765.7C640.7 761.7 732.3 763.3 823.8 766.2C915.3 769 1006.7 773 1098.2 761.5C1189.7 750 1281.3 723 1372.8 725.5C1464.3 728 1555.7 760 1647.2 761.7C1738.7 763.3 1830.3 734.7 1876.2 720.3L1922 706L1922 941L1876.2 941C1830.3 941 1738.7 941 1647.2 941C1555.7 941 1464.3 941 1372.8 941C1281.3 941 1189.7 941 1098.2 941C1006.7 941 915.3 941 823.8 941C732.3 941 640.7 941 549.2 941C457.7 941 366.3 941 274.8 941C183.3 941 91.7 941 45.8 941L0 941Z" fill="#923988"></path><path d="M0 828L45.8 822.7C91.7 817.3 183.3 806.7 274.8 796.7C366.3 786.7 457.7 777.3 549.2 786.3C640.7 795.3 732.3 822.7 823.8 828.3C915.3 834 1006.7 818 1098.2 817.5C1189.7 817 1281.3 832 1372.8 838.7C1464.3 845.3 1555.7 843.7 1647.2 838.3C1738.7 833 1830.3 824 1876.2 819.5L1922 815L1922 941L1876.2 941C1830.3 941 1738.7 941 1647.2 941C1555.7 941 1464.3 941 1372.8 941C1281.3 941 1189.7 941 1098.2 941C1006.7 941 915.3 941 823.8 941C732.3 941 640.7 941 549.2 941C457.7 941 366.3 941 274.8 941C183.3 941 91.7 941 45.8 941L0 941Z" fill="#a93c88"></path><path d="M0 877L45.8 876.7C91.7 876.3 183.3 875.7 274.8 877C366.3 878.3 457.7 881.7 549.2 884.3C640.7 887 732.3 889 823.8 889.3C915.3 889.7 1006.7 888.3 1098.2 887.8C1189.7 887.3 1281.3 887.7 1372.8 879.2C1464.3 870.7 1555.7 853.3 1647.2 843.3C1738.7 833.3 1830.3 830.7 1876.2 829.3L1922 828L1922 941L1876.2 941C1830.3 941 1738.7 941 1647.2 941C1555.7 941 1464.3 941 1372.8 941C1281.3 941 1189.7 941 1098.2 941C1006.7 941 915.3 941 823.8 941C732.3 941 640.7 941 549.2 941C457.7 941 366.3 941 274.8 941C183.3 941 91.7 941 45.8 941L0 941Z" fill="#bf4086"></path></svg>